<?xml version="1.0"?>
<svg width="5000" height="8000" xmlns="http://www.w3.org/2000/svg" xmlns:svg="http://www.w3.org/2000/svg" transform="matrix(.6591,0,0,.6591,0,0)">
 <g class="layer" display="inline">
  <title>Layer 1</title>
  <g fill="#002855" id="svg_1" transform="translate(-5.68 0) translate(-5.68 0) translate(0.39 0) translate(-5.29 0) translate(-5.68 0) translate(-5.68 0) translate(-1.61 0) translate(-7.29 0) translate(-10 0) translate(-10 0) translate(-10 0) translate(-10 0) translate(-10 0) translate(-10 0) translate(-10 0) translate(-10 0) translate(-10 0) translate(-10 0) translate(-10 0) translate(-10 0) translate(-10 0) translate(-10 0) translate(-10 0) translate(-10 0) translate(-10 0) translate(-10 0) translate(-10 0) translate(-10 0) translate(-10 0) translate(-10 0) translate(-10 0) translate(-10 0) translate(-10 0) translate(-10 0) translate(-10 0) translate(-10 0) translate(-10 0) translate(-10 0) translate(-10 0) translate(-10 0) translate(-10 0) translate(-10 0) translate(-10 0) translate(-10 0) translate(-10 0) translate(-10 0) translate(-10 0) translate(-10 0) translate(-10 0) translate(-10 0) translate(-10 0) translate(-10 0) translate(-10 0) translate(-10 0) translate(-10 0) translate(-10 0) translate(-10 0) translate(-10 0)">
   <path d="m1305,7496c-103,-51 -105,-72 -35,-456l111,-610l59,-330l79,-440l51,-285l45,-250c14,-68 35,-188 76,-425l25,-146c5,-27 1,-34 -48,-71c-76,-58 -256,-238 -316,-318c-73,-96 -104,-139 -132,-185l-47,-75c-93,-148 -201,-421 -247,-625c-62,-268 -66,-652 -12,-915a2123,2123 0 0 1 226,-601a2782,2782 0 0 1 170,-253c0,-7 29,-41 128,-151c59,-67 109,-114 232,-220c66,-57 256,-179 366,-234c213,-107 368,-160 604,-207c103,-21 142,-23 375,-23c223,1 277,4 379,23a2168,2168 0 0 1 1436,921l36,55c108,162 241,484 274,665c38,208 40,227 36,491c-3,145 -7,282 -10,304c-34,223 -94,412 -198,624c-53,109 -133,247 -165,285l-43,57c-35,49 -40,55 -95,118c-73,82 -267,270 -285,276c-28,9 -42,44 -31,78c5,18 12,60 15,95s10,71 16,82c6,10 14,45 19,77l31,168c11,61 26,137 31,170c19,110 26,149 43,230l20,110c5,40 35,191 46,235l20,110c6,41 16,93 21,115c8,36 26,132 49,265l20,105c6,33 13,77 15,97a2990,2990 0 0 1 49,244l45,234c6,25 13,65 16,90s13,77 21,115l25,113c5,23 9,82 9,131c0,83 -2,90 -27,116c-16,15 -37,31 -48,35s-789,7 -1730,6c-1683,0 -1711,-1 -1750,-20m3078,-444c-1,-24 -11,-91 -22,-150l-32,-167l-19,-105l-29,-160l-122,-675l-29,-155l-19,-105l-101,-545l-30,-165c-12,-66 -31,-165 -43,-220c-21,-106 -25,-261 -7,-295c6,-10 54,-54 108,-96c106,-84 304,-275 340,-327c12,-18 30,-42 39,-53c97,-106 226,-399 282,-634c66,-283 52,-640 -37,-920c-90,-285 -248,-534 -447,-705l-69,-60c-6,-6 -28,-21 -48,-35c-21,-14 -38,-28 -38,-31c0,-4 -13,-12 -30,-19c-16,-7 -30,-16 -30,-21s-4,-9 -10,-9c-5,0 -38,-17 -72,-38c-114,-70 -435,-212 -478,-212c-9,0 -42,-7 -75,-15c-74,-20 -166,-31 -335,-41c-126,-8 -343,30 -535,94c-159,52 -395,186 -561,317c-55,43 -266,255 -303,305a1671,1671 0 0 0 -267,605c-24,121 -47,297 -48,365c-1,74 20,285 34,345c31,136 43,180 65,246c36,104 64,174 103,249c37,70 143,234 189,290c54,67 189,195 272,260c47,36 104,83 128,106l43,41l-1,79c0,43 -4,102 -10,129l-20,120c-6,39 -15,75 -20,81s-6,13 -3,16c6,6 -22,164 -32,180c-4,6 -6,25 -6,42c1,17 -4,47 -10,66c-7,19 -11,45 -9,56c1,12 -5,38 -13,58s-18,71 -21,114c-4,42 -11,89 -17,104c-5,15 -11,46 -13,70c-2,48 -22,165 -31,188c-4,8 -7,29 -9,45c-1,17 -8,57 -15,90c-13,65 -23,123 -38,227c-5,36 -13,72 -17,79c-5,7 -8,28 -7,47c1,18 -5,49 -13,68s-12,41 -9,49s-2,40 -12,72c-9,32 -18,84 -20,116c-2,31 -13,84 -24,117s-20,80 -20,105c0,42 -6,76 -32,185c-12,50 -25,136 -32,223l-6,57l1348,-2l1347,-3l-2,-43z" id="svg_2"/>
   <path d="m2795,6363l-96,-24c-56,-14 -158,-88 -212,-154a595,595 0 0 1 -74,-644c39,-80 150,-197 222,-234c68,-34 171,-67 210,-67c46,0 47,-5 114,-375l26,-140l11,-70c3,-22 9,-55 14,-73c9,-32 6,-36 -71,-112c-43,-43 -79,-86 -79,-94c0,-9 -4,-16 -9,-16c-14,0 -60,-151 -66,-221c-9,-86 14,-194 62,-289c21,-41 38,-80 37,-85c-1,-6 -23,-39 -50,-74l-64,-84l-92,-127l-110,-150c-55,-75 -48,-72 -125,-54c-37,9 -89,18 -115,21c-51,5 -158,-13 -158,-28c0,-5 -11,-9 -24,-9c-69,0 -201,-115 -253,-220c-42,-85 -52,-128 -51,-224c0,-88 23,-173 65,-240c32,-50 140,-156 159,-156c8,0 14,-4 14,-9s8,-11 18,-15c86,-30 117,-36 187,-36c96,1 150,12 222,47c55,27 154,123 176,170c5,12 15,23 22,23c11,0 339,-82 460,-115l130,-32c39,-8 76,-20 82,-27c7,-6 20,-37 28,-69c58,-222 302,-365 510,-298c175,57 277,182 287,354c6,93 -3,152 -35,221a518,518 0 0 1 -185,190a480,480 0 0 1 -370,8a470,470 0 0 1 -153,-141c-3,-7 -16,-13 -29,-14c-33,-1 -253,47 -309,67c-24,9 -60,16 -80,16s-49,7 -65,15c-16,9 -70,25 -120,37c-50,11 -97,24 -105,28c-8,5 -24,52 -38,111l-23,103l28,41l39,53c7,7 29,39 50,70s44,63 51,71c8,8 25,30 38,50s40,56 58,81c19,25 56,76 81,113c26,38 53,71 59,73c7,3 45,-2 85,-11c97,-20 160,-19 245,5a486,486 0 0 1 350,320c25,69 26,84 23,190c-5,121 -16,168 -60,242c-62,106 -216,218 -299,218c-20,0 -38,5 -40,11s-25,13 -51,16c-58,7 -75,27 -87,105a5123,5123 0 0 1 -70,369c-5,35 -16,94 -24,131c-16,78 -16,77 61,132a580,580 0 0 1 84,876c-63,62 -136,110 -167,110c-8,0 -26,7 -39,16c-51,33 -225,49 -310,27" id="svg_3"/>
  </g>
  <g fill="#000006" id="svg_4" stroke="#000" stroke-width="10" transform="translate(-5.68 0) translate(-5.68 0) translate(0.39 0) translate(-5.29 0) translate(-5.68 0) translate(-5.68 0) translate(-1.61 0) translate(-7.29 0) translate(-10 0) translate(-10 0) translate(-10 0) translate(-10 0) translate(-10 0) translate(-10 0) translate(-10 0) translate(-10 0) translate(-10 0) translate(-10 0) translate(-10 0) translate(-10 0) translate(-10 0) translate(-10 0) translate(-10 0) translate(-10 0) translate(-10 0) translate(-10 0) translate(-10 0) translate(-10 0) translate(-10 0) translate(-10 0) translate(-10 0) translate(-10 0) translate(-10 0) translate(-10 0) translate(-10 0) translate(-10 0) translate(-10 0) translate(-10 0) translate(-10 0) translate(-10 0) translate(-10 0) translate(-10 0) translate(-10 0) translate(-10 0) translate(-10 0) translate(-10 0) translate(-10 0) translate(-10 0) translate(-10 0) translate(-10 0) translate(-10 0) translate(-10 0) translate(-10 0) translate(-10 0) translate(-10 0) translate(-10 0) translate(-10 0) translate(-10 0)">
   <path d="m1302,7497c-61,-29 -77,-60 -75,-147c0,-41 8,-115 18,-165l25,-140c5,-27 15,-84 24,-125a15730,15730 0 0 0 92,-510l20,-115l50,-280c20,-104 42,-226 49,-270l35,-195l30,-165l20,-104l40,-230c17,-97 39,-221 50,-276c10,-55 21,-116 23,-135l12,-76c6,-37 5,-42 -26,-65c-74,-55 -249,-224 -302,-292l-45,-55c-33,-39 -134,-188 -170,-252a3303,3303 0 0 1 -170,-362c-13,-31 -65,-211 -80,-278a2436,2436 0 0 1 -18,-844c4,-27 11,-56 15,-65a2063,2063 0 0 1 205,-556a2136,2136 0 0 1 818,-837c209,-121 426,-202 678,-254c125,-26 152,-29 360,-29c198,0 371,9 389,19a2208,2208 0 0 1 1016,445c94,75 266,242 259,253c-3,5 -1,7 3,6c41,-13 383,527 383,605c0,9 4,19 10,22c23,14 106,324 124,460l17,126c8,57 10,143 5,255c-7,191 -9,218 -30,323l-20,101c-9,46 -56,210 -65,228c-5,9 -26,60 -46,112c-42,109 -121,260 -200,380c-32,49 -30,46 -80,108c-19,24 -35,47 -35,51c0,9 -237,249 -290,293c-90,75 -87,63 -55,198c7,30 23,111 35,180l45,245a28015,28015 0 0 1 85,450l19,105l20,110c63,342 117,626 161,860l122,627l30,153l-21,42c-12,24 -34,52 -49,63c-27,20 -43,20 -1750,20c-1632,0 -1725,-1 -1760,-18zm3491,-41c34,-26 37,-32 37,-80c0,-28 -5,-67 -10,-86c-6,-19 -12,-54 -15,-77c-2,-23 -6,-46 -9,-52c-6,-9 -12,-44 -21,-114c-2,-21 -6,-41 -9,-45c-3,-5 -7,-27 -10,-51s-9,-57 -15,-75c-5,-17 -12,-60 -15,-95s-11,-70 -17,-77c-6,-8 -9,-14 -6,-14s-1,-27 -9,-60c-15,-66 -19,-88 -40,-210l-24,-130c-5,-25 -14,-81 -20,-125s-14,-87 -17,-95l-9,-30l-43,-245c-11,-66 -30,-157 -41,-202a1331,1331 0 0 1 -34,-191c-5,-8 -13,-46 -21,-97c-10,-62 -18,-101 -25,-121a1421,1421 0 0 0 -44,-243c-3,-4 -8,-39 -12,-77c-3,-38 -10,-76 -14,-84s-16,-67 -25,-132c-12,-86 -14,-122 -6,-137c6,-11 44,-47 84,-79c77,-65 182,-170 263,-267c106,-125 272,-393 307,-496l47,-129c38,-100 52,-147 54,-177c0,-13 4,-23 8,-23c5,0 7,-3 7,-7c-1,-5 2,-28 7,-53c4,-25 8,-55 7,-67c0,-13 3,-23 8,-23c4,0 8,-8 8,-17c0,-10 7,-76 16,-148c23,-180 10,-528 -22,-605a1496,1496 0 0 1 -17,-93c-5,-31 -12,-60 -17,-63s-7,-10 -4,-15c6,-8 -38,-148 -73,-234c-31,-75 -139,-280 -183,-346a2369,2369 0 0 0 -414,-472c-60,-52 -270,-189 -354,-232c-41,-20 -86,-46 -100,-56c-15,-11 -36,-21 -48,-23c-11,-3 -45,-16 -74,-30c-54,-25 -132,-53 -173,-62l-31,-8c-5,-1 -20,-7 -32,-14s-35,-11 -50,-10s-37,-3 -48,-9s-26,-8 -33,-6c-7,3 -19,-1 -27,-7c-8,-7 -22,-9 -31,-6c-9,4 -23,1 -30,-5c-8,-6 -21,-8 -30,-5s-21,3 -27,-1s-29,-6 -50,-4c-21,1 -43,-2 -50,-7c-15,-12 -77,-21 -77,-12c0,13 -151,12 -166,-1c-10,-8 -14,-8 -14,0c0,13 -54,15 -78,2c-18,-9 -152,6 -152,18c0,3 -29,6 -65,6s-69,5 -73,10c-4,6 -22,11 -41,11c-18,1 -36,5 -40,10c-3,5 -21,10 -40,10c-18,1 -36,6 -40,11c-7,13 -40,23 -89,29c-20,3 -55,15 -77,28s-58,29 -80,36s-51,21 -65,30c-14,10 -59,35 -100,56a2047,2047 0 0 0 -866,860c-25,49 -51,94 -58,99c-6,6 -12,17 -14,25s-7,16 -12,18s-6,10 -3,18s1,14 -3,14c-5,0 -10,10 -10,23c-2,32 -30,101 -43,105c-6,2 -11,17 -11,33s-4,29 -10,29c-5,0 -7,7 -4,15c4,8 2,15 -4,15s-8,9 -5,21c3,11 1,30 -4,42c-6,12 -16,56 -22,97s-16,77 -22,81c-6,3 -7,18 -3,34c4,17 2,30 -6,35c-15,9 -23,450 -8,450c4,0 6,11 2,25c-4,17 -2,25 6,25c9,0 11,12 7,40c-3,27 -1,40 6,40c8,0 7,4 -2,9q-13,9 -3,15c6,4 9,13 5,21c-3,8 0,15 7,15c8,0 11,11 8,30c-3,16 0,30 5,30s7,6 4,14c-7,19 20,150 42,200c20,47 40,103 46,128c2,9 11,30 19,47c9,16 16,35 16,41s7,18 15,27c8,8 13,19 10,24c-4,5 -1,9 4,9c6,0 11,3 10,8c-2,14 13,52 21,52c9,0 26,44 19,46c-2,1 4,10 13,20c9,11 22,30 28,44c10,24 20,40 102,164c71,106 274,319 402,421c37,30 37,31 38,104c0,48 -4,76 -12,81c-7,4 -9,16 -5,29s2,21 -5,21c-8,0 -10,9 -6,25c4,14 2,25 -2,25c-5,0 -8,20 -8,45c1,25 -4,49 -11,53c-6,4 -13,33 -15,65c-1,31 -6,57 -11,57c-4,0 -4,18 -1,40c5,28 3,40 -5,40s-10,8 -6,20s2,20 -5,20s-9,12 -4,35c4,24 2,35 -6,35c-7,0 -9,8 -5,20c3,11 3,20 -2,20s-9,25 -9,56c0,30 -4,58 -9,62c-6,4 -11,27 -13,52c-2,24 -8,48 -15,52c-9,6 -8,8 3,8c9,0 11,3 5,8c-5,4 -11,27 -12,51s-7,48 -14,52s-9,14 -6,22c3,9 2,17 -4,19c-5,2 -11,46 -14,97c-2,52 -9,97 -15,101s-8,15 -4,24c4,10 2,21 -6,26c-7,4 -14,36 -16,76c-5,92 -6,94 -18,94c-6,0 -4,5 4,10s10,10 5,10c-6,0 -11,19 -11,42c-1,23 -6,44 -12,46c-7,2 -9,15 -6,32c4,18 0,37 -10,51s-16,44 -16,75c0,33 -5,54 -12,57c-10,4 -9,8 2,16c8,6 10,11 4,11c-7,0 -9,11 -6,25c3,16 -2,33 -13,45c-10,11 -17,37 -18,67c-1,26 -6,51 -11,55c-5,3 -8,29 -7,57c1,32 -3,51 -10,51c-6,0 -9,7 -5,15c3,8 1,15 -5,15c-7,0 -10,16 -7,40c2,22 1,40 -3,40s-4,20 -1,45c3,32 1,45 -8,45c-7,0 -10,7 -6,15c3,8 1,15 -5,15c-7,0 -9,10 -5,25s2,25 -5,25s-8,11 -4,30c4,18 3,30 -4,30c-6,0 -7,14 -4,35c4,24 2,35 -7,35c-7,0 -10,8 -7,20c3,11 0,20 -6,20c-7,0 -5,5 3,10s10,10 3,10c-6,0 -9,9 -6,20s1,20 -5,20s-8,9 -5,20s1,20 -5,20c-5,0 -10,29 -10,66c0,42 -5,70 -13,75c-9,5 -7,18 9,51c11,24 26,49 34,55c37,30 130,32 1109,33c546,0 994,2 996,4s308,3 681,2l677,-1l38,-29z" id="svg_5"/>
   <path d="m4294,7134c-5,-2 -593,-4 -1307,-6c-1502,-5 -1344,9 -1326,-113l15,-105l19,-115l20,-115l15,-104c5,-38 14,-72 19,-75s9,-28 10,-56c0,-27 8,-79 16,-115c18,-71 29,-130 44,-230l15,-90l16,-85l26,-150l21,-125c2,-19 7,-42 10,-50s7,-28 8,-45c1,-16 10,-70 20,-120a7046,7046 0 0 0 66,-385l13,-70c2,-14 11,-61 21,-105c9,-44 18,-100 21,-125s9,-47 14,-48c6,-2 8,-7 6,-11c-6,-10 22,-183 34,-217c17,-43 12,-123 -9,-152c-10,-15 -51,-52 -91,-82c-109,-83 -227,-192 -303,-277a1243,1243 0 0 1 -181,-258c-47,-76 -109,-209 -127,-272c-7,-24 -16,-43 -21,-43c-4,0 -7,-3 -6,-7c3,-11 -11,-70 -28,-122c-33,-100 -55,-274 -57,-446c-2,-177 2,-229 30,-355c9,-41 17,-87 18,-101s4,-30 7,-35s23,-58 43,-119c73,-214 157,-353 333,-550c29,-33 71,-73 92,-90l112,-90c100,-83 256,-185 357,-234c46,-23 90,-46 98,-52c7,-7 23,-13 36,-15c12,-1 51,-15 87,-29c36,-15 101,-34 145,-41l135,-25c30,-6 125,-13 210,-16a1458,1458 0 0 1 745,162c126,59 153,74 275,154c297,194 460,378 607,681c55,115 98,234 88,250c-3,4 0,10 5,12c6,2 12,23 15,48c2,25 8,70 15,100c6,30 13,67 14,81c2,14 6,31 10,37s4,34 0,62c-5,39 -4,50 7,50s11,2 -1,10c-13,9 -13,11 0,20s13,11 0,20c-10,6 -11,13 -5,18c6,4 10,12 10,17l-8,65c-8,71 -19,235 -17,282c0,20 -4,39 -10,43s-8,11 -5,16c4,5 1,9 -5,9c-7,0 -10,7 -6,15c3,8 2,15 -3,15c-4,0 -6,13 -3,30c2,17 0,30 -6,30s-8,8 -5,19c2,10 -3,25 -11,34c-9,8 -13,22 -10,30s-1,21 -9,28c-7,8 -12,20 -9,27c2,6 -1,12 -6,12c-6,0 -8,9 -5,19c3,11 -3,27 -15,39c-11,11 -18,23 -15,25c7,7 -27,77 -38,77c-5,0 -6,7 -3,15c4,8 -1,17 -9,21c-9,3 -13,12 -10,20s-1,22 -9,32c-8,9 -26,37 -41,62c-14,25 -40,61 -56,80c-17,19 -31,40 -31,47c0,14 -294,313 -307,313c-5,0 -45,33 -88,74l-79,74l-6,67c-3,41 -1,81 6,102c7,18 10,43 7,53c-3,12 0,20 7,20s10,7 6,15c-3,8 -1,15 4,15c4,0 8,28 8,63c-1,35 2,69 7,76c4,7 9,32 11,54c1,23 7,43 13,45s8,14 5,28c-3,13 -2,24 4,24c5,0 7,11 4,25c-3,16 0,25 8,25c9,0 11,10 7,30c-4,17 -2,30 3,30c6,0 8,11 4,24c-3,13 -1,27 6,31s9,18 5,36c-4,19 -3,29 5,29s10,9 6,25c-4,15 -2,25 5,25c6,0 9,12 8,28c-2,15 0,33 4,40c5,6 9,30 9,52s5,40 10,40c6,0 8,14 6,30c-3,17 0,30 5,30s7,13 4,29c-3,15 -1,33 4,38c6,6 11,31 12,57c1,25 6,46 11,46c4,0 6,11 4,25c-3,14 -2,25 1,25s6,21 7,46s6,49 13,53c8,5 10,18 5,34c-4,17 -2,27 5,27c6,0 8,7 5,15c-4,8 -1,22 6,30s10,26 6,40c-4,15 -2,25 4,25c7,0 9,12 6,30c-2,17 0,30 6,30c5,0 8,10 7,23c-1,12 1,30 6,40c4,9 5,24 1,32c-3,8 -1,15 4,15s7,13 4,29c-4,16 -1,32 5,35c6,4 11,27 11,52c0,24 5,44 11,44s8,9 4,20c-3,11 -2,20 3,20c6,0 10,21 9,46c0,26 5,49 12,53c8,6 10,22 6,50c-4,25 -2,41 4,41s8,12 5,30c-4,20 -2,30 5,30s9,5 6,10c-3,6 -2,10 3,10c6,0 10,10 11,23c3,115 27,257 43,257c6,0 7,11 4,27c-4,15 -3,29 4,33c6,4 12,32 13,64c1,31 4,56 7,56c11,0 4,80 -8,92c-9,9 -12,6 -12,-14c0,-25 -9,-77 -31,-178c-5,-25 -12,-58 -14,-75c-13,-82 -21,-126 -51,-275c-14,-69 -29,-152 -34,-185c-11,-71 -33,-198 -55,-310c-16,-83 -47,-259 -90,-500c-32,-181 -35,-197 -40,-215a2188,2188 0 0 0 -30,-165c-31,-156 -76,-396 -90,-489c-9,-55 -18,-102 -20,-105c-1,-3 -6,-24 -9,-46s-11,-63 -17,-90c-10,-46 -9,-56 12,-100c19,-39 43,-64 109,-115c93,-71 312,-281 347,-333l40,-53c57,-64 171,-279 215,-404c80,-226 99,-339 104,-595c4,-283 -23,-446 -112,-665c-66,-164 -74,-180 -163,-315c-82,-124 -253,-301 -363,-375c-21,-14 -38,-28 -38,-31c0,-4 -13,-12 -30,-19c-16,-7 -30,-16 -30,-21s-4,-9 -10,-9c-5,0 -38,-17 -72,-38a1982,1982 0 0 0 -599,-236c-305,-52 -644,-18 -903,91a2672,2672 0 0 0 -410,232l-49,40c-15,13 -27,22 -27,19c0,-4 -15,8 -33,25l-73,68a1330,1330 0 0 0 -324,429a1627,1627 0 0 0 -156,481c-11,18 -19,155 -19,314c1,155 5,199 29,320c15,77 31,149 36,160l34,90c48,138 78,202 145,315c79,133 134,203 246,315c74,73 108,102 247,213c101,80 112,120 79,282c-23,114 -38,198 -76,415l-44,255l-26,150l-14,80l-20,105l-61,335l-19,115l-32,185l-29,165c-18,112 -42,244 -55,305c-24,115 -78,460 -73,465c2,3 609,5 1347,5c1126,1 1341,3 1332,14c-11,13 -57,25 -77,20z" id="svg_6"/>
   <path d="m2840,6373a530,530 0 0 1 -270,-110a502,502 0 0 1 -143,-172a573,573 0 0 1 177,-763c60,-39 199,-88 248,-88c39,0 45,-20 98,-321l35,-197c2,-13 11,-57 21,-98l16,-76l-70,-66a477,477 0 0 1 -162,-382c0,-105 19,-183 67,-272l37,-68l-25,-27c-34,-37 -264,-349 -304,-411c-5,-9 -20,-27 -32,-41c-19,-21 -25,-23 -46,-14c-63,29 -210,34 -303,10a468,468 0 0 1 -210,-781a429,429 0 0 1 356,-135c70,4 97,10 152,36c76,36 145,95 185,159c16,24 34,44 42,44c7,0 111,-25 230,-56c235,-61 346,-88 402,-98c39,-7 53,-26 65,-86a433,433 0 0 1 252,-289c106,-42 267,-26 364,35c82,52 162,160 172,232l11,69c10,54 -10,163 -41,228a482,482 0 0 1 -204,198c-51,23 -82,31 -151,35c-151,8 -254,-42 -342,-168c-12,-17 -26,-23 -49,-23c-36,1 -65,6 -88,15c-15,6 -164,43 -210,52c-72,13 -373,95 -380,102c-5,5 -16,43 -25,84l-22,98c-5,21 27,81 65,121c7,7 33,43 58,80c48,70 81,117 114,160l74,101l73,99l19,24l82,-16a515,515 0 0 1 611,368c26,102 9,271 -35,358a515,515 0 0 1 -368,263c-82,15 -116,34 -116,65c0,10 -4,38 -10,61c-13,60 -36,177 -55,288c-27,155 -43,234 -50,252c-8,20 17,47 86,94c91,62 185,199 215,314c29,113 13,292 -35,394a537,537 0 0 1 -379,302c-70,16 -160,24 -202,17zm164,-52c16,-7 36,-9 46,-6c9,3 23,-1 30,-10c7,-8 20,-15 29,-15c10,0 42,-12 72,-27c58,-29 173,-139 165,-159c-3,-7 1,-15 8,-17c29,-11 86,-199 86,-284c0,-56 -30,-176 -59,-238c-35,-74 -94,-141 -179,-206c-91,-69 -94,-73 -78,-145c7,-32 13,-70 14,-83c1,-14 5,-36 11,-50c5,-14 14,-57 21,-96a7474,7474 0 0 1 45,-252c21,-117 37,-151 81,-169c20,-8 43,-13 50,-10c8,3 14,2 14,-3s24,-11 53,-13c63,-5 110,-27 185,-85c111,-86 162,-199 163,-361a465,465 0 0 0 -207,-399c-32,-22 -145,-63 -174,-63c-9,0 -20,-3 -23,-7c-12,-11 -107,-12 -107,-1c0,7 -16,9 -45,5c-25,-4 -45,-3 -45,3c0,15 -36,21 -64,10c-34,-12 -74,-59 -176,-205l-42,-60a6203,6203 0 0 1 -197,-275c-12,-10 -31,-50 -31,-65c0,-9 6,-37 14,-63s17,-64 21,-84c7,-44 43,-88 72,-88c11,0 26,-7 33,-15c9,-11 22,-14 40,-10c19,4 33,1 44,-10c9,-10 24,-14 33,-11c8,4 21,2 28,-4s48,-17 92,-25c43,-7 109,-23 147,-34s72,-18 77,-15s20,-3 33,-12c14,-9 31,-14 38,-11c7,2 25,-2 41,-10c47,-24 90,-4 171,80c80,82 128,106 226,108c94,2 151,-11 221,-52c97,-56 135,-108 174,-233c46,-151 -21,-335 -150,-410a374,374 0 0 0 -485,80c-19,24 -39,44 -45,44c-5,0 -11,10 -11,23c-1,26 -25,89 -38,98c-5,4 -5,12 -2,18c4,6 2,11 -4,11s-9,4 -6,8c10,17 -34,41 -96,53c-35,6 -69,16 -76,22c-7,5 -29,11 -49,12s-39,7 -41,13s-10,8 -18,5s-22,1 -32,10c-19,16 -69,28 -122,29c-19,1 -38,6 -42,11c-4,6 -22,11 -42,10c-22,-1 -37,4 -40,14c-4,11 -14,13 -36,8c-17,-4 -30,-2 -30,3c0,13 -79,13 -112,0c-14,-5 -39,-28 -55,-51a393,393 0 0 0 -233,-154c-19,-2 -39,-8 -44,-14c-13,-12 -73,-12 -78,1c-2,6 -31,12 -66,13c-34,0 -62,5 -62,9s-17,15 -37,25a504,504 0 0 0 -222,273c-10,8 -7,190 3,190c4,0 5,11 2,25c-4,14 -2,25 3,25c6,0 8,7 5,15c-4,8 -2,15 3,15s15,16 22,35s17,35 22,35s9,5 9,11c0,16 67,89 110,120c40,29 63,39 105,46c17,3 35,9 42,15c25,20 245,9 259,-13c18,-30 92,19 145,97c47,71 105,151 120,167c9,10 34,43 55,75c21,31 62,86 91,121c42,52 50,67 42,82c-5,11 -6,19 -2,19s-3,7 -15,16c-12,8 -20,20 -17,25c4,5 1,9 -5,9s-9,4 -5,9c6,10 -24,81 -34,81c-9,0 -16,86 -15,180c2,148 45,246 156,351c61,58 69,70 62,90c-4,13 -7,36 -6,52c1,15 -1,27 -5,27c-5,0 -8,26 -8,59c-1,41 -6,63 -18,75c-11,12 -15,28 -12,52c2,19 1,34 -3,34s-7,20 -7,45c0,28 -5,49 -14,54c-9,6 -11,18 -6,40c4,17 3,31 -3,31c-5,0 -7,11 -4,25c2,15 0,25 -8,25s-9,10 -5,30c4,19 3,30 -4,30s-9,10 -5,25c4,17 2,25 -7,25c-11,0 -11,3 1,10c13,8 13,10 -2,10c-9,0 -21,13 -26,29c-10,28 -40,41 -96,41c-12,0 -33,8 -46,17c-14,10 -39,18 -56,19c-18,0 -40,8 -49,17c-9,10 -23,17 -31,17s-17,7 -20,15c-4,8 -12,15 -19,15c-8,0 -17,9 -20,20s-15,20 -26,20c-10,0 -19,4 -19,8c0,5 -20,44 -45,87c-24,43 -52,102 -61,131c-9,30 -21,54 -25,54c-11,0 -12,203 -2,214c4,3 8,12 9,19l9,42c3,16 12,33 18,37c7,4 8,8 3,8s-3,7 4,15s9,15 6,15c-4,0 1,14 11,30c9,17 21,30 25,30s8,5 8,11c0,37 129,149 215,187c77,35 246,47 309,23z" id="svg_7"/>
  </g>
 </g>
</svg>